PathFileType	4	(X/Y/Z)	C:/Users/opensim2020/Desktop/walking_exp_matlab/subject02_walking06_straight_03.trc																																																																																																																									
DataRate	CameraRate	NumFrames	NumMarkers	Units	OrigDataRate	OrigDataStartFrame	OrigNumFrames																																																																																																																					
100	100	6	41	mm	100	2090	223																																																																																																																					
Frame#	Time	LFHD			RFHD			LBHD			RBHD			C7			T10			CLAV			STRN			RBAK			LSHO			LUPA			LELB			LFRM			LWRA			LWRB			LFIN			RSHO			RUPA			RELB			RFRM			RWRA			RWRB			RFIN			LASI			RASI			LPSI			RPSI			LTHI			LKNE			LTIB			LANK			LHEE			LTOE			RTHI			RKNE			RTIB			RANK			RHEE			RTOE			*39			*40		
		X1	Y1	Z1	X2	Y2	Z2	X3	Y3	Z3	X4	Y4	Z4	X5	Y5	Z5	X6	Y6	Z6	X7	Y7	Z7	X8	Y8	Z8	X9	Y9	Z9	X10	Y10	Z10	X11	Y11	Z11	X12	Y12	Z12	X13	Y13	Z13	X14	Y14	Z14	X15	Y15	Z15	X16	Y16	Z16	X17	Y17	Z17	X18	Y18	Z18	X19	Y19	Z19	X20	Y20	Z20	X21	Y21	Z21	X22	Y22	Z22	X23	Y23	Z23	X24	Y24	Z24	X25	Y25	Z25	X26	Y26	Z26	X27	Y27	Z27	X28	Y28	Z28	X29	Y29	Z29	X30	Y30	Z30	X31	Y31	Z31	X32	Y32	Z32	X33	Y33	Z33	X34	Y34	Z34	X35	Y35	Z35	X36	Y36	Z36	X37	Y37	Z37	X38	Y38	Z38	X39	Y39	Z39	X40	Y40	Z40	X41	Y41	Z41
																																																																																																																												
84	0.83	-98.77962	1718.38245	1365.06909	-96.82533	1705.91797	1508.97473	-223.78236	1633.13928	1360.78943	-233.83531	1618.70251	1503.84778	-267.54831	1494.95227	1442.52979	-317.78772	1223.4082	1460.53662	-125.02417	1431.77405	1428.70911	-71.04629	1261.30676	1453.23193	-319.68094	1329.02686	1522.58594	-207.87675	1459.20691	1262.98193	-272.729	1268.6842	1195.58557	-313.20132	1134.42834	1190.04895	-343.80707	1006.94702	1175.05701	-319.11295	869.19965	1186.97656	-370.45508	886.66223	1169.52686	-372.83218	819.99969	1161.68213	-179.2294	1482.10437	1623.90393	-170.72206	1306.80774	1735.3302	-115.8617	1173.71204	1779.04114	-32.65048	1083.37048	1792.10522	65.43381	994.41663	1762.32971	33.52277	971.51154	1803.94482	97.43227	938.48517	1799.1875	-68.76422	973.28998	1342.31982	-95.7223	949.70496	1599.87878	-287.52637	1000.84198	1400.5116	-303.16168	1000.53436	1511.68579	-54.50044	673.03644	1267.79626	-25.46849	472.4783	1294.83154	-23.77888	277.24561	1296.21973	44.4987	66.58424	1314.89502	17.08488	37.7964	1368.73303	201.23946	51.62171	1299.96313	-247.63602	659.28326	1661.19739	-302.84958	456.51117	1633.41016	-423.03989	309.34229	1638.27002	-520.65448	139.78656	1609.39587	-569.79834	99.63778	1553.56738	-397.36536	34.92101	1626.71777	-204.97182	1779.44958	1453.10596	2845.64648	1034.0769	-3357.55249
85	0.84	-88.97912	1718.91968	1362.74011	-87.44637	1706.25696	1506.63745	-213.88754	1633.65149	1358.08374	-224.43138	1618.77283	1500.66907	-257.73923	1494.61646	1439.05188	-306.07651	1222.56543	1456.64807	-114.77428	1432.25269	1425.90479	-59.82982	1262.14893	1450.23694	-309.46988	1328.11951	1518.88306	-196.82199	1458.96179	1259.64929	-259.94662	1267.52039	1192.05615	-299.50732	1132.92358	1186.92773	-329.22458	1005.14685	1172.27783	-303.92249	867.33673	1185.43774	-355.0527	884.80029	1167.27942	-356.76111	817.98883	1159.8689	-170.30428	1481.60107	1621.50818	-162.45079	1305.41663	1732.37585	-107.7631	1172.26257	1775.86926	-24.38298	1082.01636	1788.95325	73.96628	993.46936	1759.14941	41.89643	970.23267	1800.51843	105.97092	937.43701	1795.75024	-55.42712	973.42755	1338.82629	-82.37296	949.29846	1595.78162	-273.95245	1000.98425	1396.07727	-290.85266	999.48419	1507.19421	-46.00451	673.04242	1263.25378	-15.75419	473.33136	1290.52136	-15.06876	278.29813	1291.4187	49.3573	65.77822	1312.34839	18.60513	38.97899	1365.98059	205.65927	44.04234	1301.29004	-235.88568	659.90833	1658.75769	-291.56796	457.34998	1633.31799	-414.71658	313.19995	1638.02417	-515.72192	145.61229	1609.98438	-565.15613	107.04802	1553.82813	-396.86502	35.0057	1627.14392	-195.60104	1779.65295	1450.5387	2845.10864	1033.974	-3360.21289
86	0.85	-79.18339	1719.76331	1360.48669	-78.04668	1706.75696	1504.31836	-204.01198	1634.2981	1355.2832	-214.77783	1619.27271	1498.14441	-247.55054	1494.82446	1435.66406	-294.51163	1222.14563	1453.01294	-104.6422	1433.04248	1423.16382	-48.63003	1263.35376	1447.21106	-298.87589	1326.83923	1514.28101	-185.86961	1459.06335	1256.27795	-247.47185	1266.60083	1188.29907	-285.28879	1131.53601	1183.67285	-313.87933	1003.66785	1169.58679	-287.89008	866.13019	1183.58459	-338.76028	883.09161	1164.86145	-340.05136	816.36749	1157.83069	-161.35046	1481.28796	1619.34106	-154.31599	1304.1095	1728.91174	-99.79446	1170.87585	1772.48364	-16.48819	1080.63916	1785.72229	82.11665	992.32965	1756.04651	49.85425	968.90155	1797.01086	113.93204	936.09619	1792.45972	-42.24764	973.77124	1335.29041	-69.49706	948.8382	1591.84021	-260.7739	1002.06891	1391.80798	-278.32147	998.93768	1503.10876	-37.78763	673.21063	1258.94482	-4.536	474.97461	1287.52844	-5.79974	280.11792	1284.65967	50.98998	66.17515	1312.61108	19.45843	39.25542	1365.80225	206.88284	41.27414	1300.19824	-223.7437	660.72046	1656.01978	-278.66782	458.80667	1633.9624	-405.15811	317.26599	1637.91345	-509.94034	151.97488	1610.28906	-559.48444	115.65247	1553.3335	-396.2677	35.00182	1627.42798	-186.11269	1780.20679	1447.99036	2845.22339	1033.80627	-3360.3208
87	0.86	-69.38914	1720.83716	1358.12646	-68.69436	1707.68652	1501.96436	-194.04045	1635.20959	1352.50134	-205.41818	1619.90442	1494.97107	-237.43845	1495.52197	1432.52295	-282.98624	1222.30164	1449.6167	-94.57776	1434.16736	1420.43542	-37.63739	1264.86584	1444.16211	-288.56616	1326.66479	1510.57544	-174.99742	1459.58728	1252.98303	-233.73003	1265.87964	1184.94238	-270.60175	1130.5155	1180.45593	-298.49518	1002.53064	1166.60388	-271.25449	865.08502	1182.04968	-321.78085	881.58929	1162.19397	-322.60849	814.94629	1155.62207	-152.35318	1481.2843	1616.97461	-146.09616	1303.19055	1725.56189	-92.17094	1169.56995	1768.60217	-8.77805	1079.479	1782.59119	89.66766	991.03351	1752.84595	57.05984	967.37946	1793.36255	121.22932	934.68671	1789.1698	-29.5595	974.38464	1331.50732	-56.60851	948.55164	1587.5199	-248.62276	1004.26666	1387.84863	-265.49863	999.00659	1499.65198	-29.20381	674.31628	1255.44116	6.76189	476.48584	1285.87439	2.67516	281.9642	1279.90051	51.61994	67.4148	1313.42688	20.37848	39.98079	1366.41333	208.10307	39.15362	1299.4928	-211.2093	661.32642	1653.19153	-264.55997	459.69107	1634.62158	-394.2948	321.2341	1637.82007	-502.89474	158.80289	1610.39209	-552.29712	124.47096	1552.51099	-395.59561	35.07767	1627.55566	-176.44576	1781.26331	1445.70007	2845.87207	1034.01123	-3357.26343
88	0.87	-59.74086	1722.2699	1355.84668	-59.41431	1708.99622	1499.63391	-184.27869	1636.46265	1349.70044	-196.0723	1621.01465	1492.20068	-227.63741	1496.52234	1429.69861	-271.82666	1222.79834	1446.53528	-84.68499	1435.56433	1417.77478	-26.80571	1266.68042	1441.19348	-278.17166	1326.37305	1506.57227	-164.24342	1460.51843	1249.77124	-220.38918	1265.4259	1181.28735	-255.55028	1129.74805	1177.20129	-281.6377	1001.42303	1163.42188	-253.14127	864.78271	1179.97083	-304.15234	880.44641	1159.30005	-304.19794	813.71497	1153.07153	-142.96335	1481.84839	1614.96362	-138.30367	1302.51062	1721.91907	-84.2552	1168.9386	1764.99548	-1.54183	1078.26538	1778.96643	96.45036	989.60089	1749.55469	63.59009	965.81909	1789.69055	127.53249	933.05078	1785.93225	-17.38283	975.41125	1327.57104	-44.00737	948.48315	1582.84644	-236.90366	1006.89948	1384.09363	-252.60507	999.77588	1496.9104	-19.27794	675.94159	1253.02197	16.98182	477.59879	1284.24805	9.60636	282.89285	1277.724	52.87804	67.98923	1313.76013	20.66578	40.28618	1366.21667	209.57971	37.73594	1301.67261	-197.97499	661.83246	1650.28821	-249.09172	460.34555	1635.22913	-382.00589	325.11398	1637.89417	-494.40329	165.8461	1610.24915	-543.646	133.89174	1551.42786	-394.5278	35.15528	1627.22388	-167.1555	1782.37878	1443.12366	2845.2959	1033.81079	-3360.37256
89	0.88	-50.21962	1723.7771	1353.53088	-50.29095	1710.43774	1497.32629	-174.60455	1637.8584	1347.05981	-186.63017	1622.44177	1489.80298	-217.813	1497.5365	1427.13708	-260.90686	1223.42432	1443.71582	-74.8236	1437.19934	1415.27124	-15.95098	1268.64771	1438.14673	-267.76074	1326.84973	1503.66968	-153.78047	1461.90149	1246.86218	-206.48418	1265.61987	1178.1438	-240.05681	1129.37878	1173.93262	-264.77591	1001.0257	1160.54004	-235.06995	864.63373	1178.073	-285.57318	879.56665	1156.19336	-284.78113	812.86633	1150.44788	-133.55791	1482.72131	1612.71997	-130.21112	1302.26575	1717.9104	-76.88271	1168.33386	1760.73889	5.01439	1077.10669	1774.93494	102.7989	988.05811	1746.18909	69.37534	964.20575	1785.94312	133.34389	931.44843	1782.896	-5.72237	976.92395	1323.55396	-31.75379	948.82611	1577.89441	-225.52405	1009.42645	1380.65894	-239.85725	1001.01501	1494.55286	-7.46876	677.84967	1250.98669	26.71373	478.39627	1282.2793	14.924	283.58911	1277.50793	54.63454	68.1092	1313.62988	21.21772	40.44481	1366.09045	211.18765	36.94893	1302.92505	-184.17075	662.26538	1647.25854	-232.38338	460.72061	1635.8363	-368.24948	328.88855	1638.17456	-484.43069	173.0076	1609.92871	-533.46442	143.74049	1549.99792	-393.21347	35.32328	1626.41284	-157.98642	1783.70471	1440.49365	2845.85742	1034.12781	-3357.4314
